# xmcd CD database file
#
# Track frame offsets:
#	150
#	21090
#	44940
#	66102
#	89887
#	106762
#	126132
#	144190
#	160987
#	176362
#	196077
#	220990
#
# Disc length: 3110 seconds
#
# Revision: 2
# Processed by: cddbd v1.5.1PL2 Copyright (c) Steve Scherf et al.
# Submitted via: CD2WAV32(JP) R3.22
#
DISCID=aa0c240c
DTITLE=ザ・コブラツイスターズ - ザ・コブラツイスターズ
DYEAR=2000
DGENRE=Rock
TTITLE0=東西南北 日本の空
TTITLE1=サクラサク
TTITLE2=運命船サラバ号出発
TTITLE3=君の目に
TTITLE4=夢の旅人
TTITLE5=光と瞬間のブルース
TTITLE6=ギラギラ太陽たち
TTITLE7=月を追い駆ける夜
TTITLE8=路地裏の宇宙少年
TTITLE9=去りゆく君へ
TTITLE10=嵐に住む人
TTITLE11=おひるね
EXTD=
EXTT0=
EXTT1=
EXTT2=
EXTT3=
EXTT4=
EXTT5=
EXTT6=
EXTT7=
EXTT8=
EXTT9=
EXTT10=
EXTT11=
PLAYORDER=
